<svg width="900" height="440" viewBox="0 0 900 440" xmlns="http://www.w3.org/2000/svg" font-family="ui-monospace,SFMono-Regular,Menlo,monospace">
  <defs>
    <marker id="arr" viewBox="0 0 10 10" refX="8" refY="5" markerWidth="6" markerHeight="6" orient="auto-start-reverse">
      <path d="M2 1L8 5L2 9" fill="none" stroke="#555" stroke-width="1.5" stroke-linecap="round" stroke-linejoin="round"/>
    </marker>
    <marker id="arr-amber" viewBox="0 0 10 10" refX="8" refY="5" markerWidth="6" markerHeight="6" orient="auto-start-reverse">
      <path d="M2 1L8 5L2 9" fill="none" stroke="#854F0B" stroke-width="1.5" stroke-linecap="round" stroke-linejoin="round"/>
    </marker>
    <marker id="arr-purple" viewBox="0 0 10 10" refX="8" refY="5" markerWidth="6" markerHeight="6" orient="auto-start-reverse">
      <path d="M2 1L8 5L2 9" fill="none" stroke="#534AB7" stroke-width="1.5" stroke-linecap="round" stroke-linejoin="round"/>
    </marker>
    <marker id="arr-green" viewBox="0 0 10 10" refX="8" refY="5" markerWidth="6" markerHeight="6" orient="auto-start-reverse">
      <path d="M2 1L8 5L2 9" fill="none" stroke="#0F6E56" stroke-width="1.5" stroke-linecap="round" stroke-linejoin="round"/>
    </marker>
  </defs>

  <!-- Background -->
  <rect width="900" height="440" fill="#fafafa" rx="12"/>

  <!-- Title -->
  <text x="450" y="30" text-anchor="middle" font-size="13" font-weight="600" fill="#222">Airflow DAG pipelines — data + ML lifecycle</text>

  <!-- ── ROW 1: 4 DAGs ── -->

  <!-- DAG 1: Bronze -->
  <rect x="20" y="48" width="152" height="104" rx="10" fill="#FAEEDA" stroke="#854F0B" stroke-width="1"/>
  <text x="96" y="72" text-anchor="middle" font-size="12" font-weight="600" fill="#633806">Bronze DAG</text>
  <text x="96" y="90" text-anchor="middle" font-size="10" fill="#854F0B">every 10 min</text>
  <text x="96" y="108" text-anchor="middle" font-size="10" fill="#854F0B">SQS → S3 Bronze</text>
  <text x="96" y="124" text-anchor="middle" font-size="10" fill="#854F0B">partitioned Parquet</text>
  <text x="96" y="140" text-anchor="middle" font-size="10" fill="#854F0B">year/month/day/hour</text>

  <line x1="172" y1="100" x2="188" y2="100" stroke="#555" stroke-width="1.5" marker-end="url(#arr)"/>

  <!-- DAG 2: Silver -->
  <rect x="194" y="48" width="152" height="104" rx="10" fill="#FAEEDA" stroke="#854F0B" stroke-width="1"/>
  <text x="270" y="72" text-anchor="middle" font-size="12" font-weight="600" fill="#633806">Silver DAG</text>
  <text x="270" y="90" text-anchor="middle" font-size="10" fill="#854F0B">hourly</text>
  <text x="270" y="108" text-anchor="middle" font-size="10" fill="#854F0B">validate · clean</text>
  <text x="270" y="124" text-anchor="middle" font-size="10" fill="#854F0B">compute IAQ score</text>
  <text x="270" y="140" text-anchor="middle" font-size="10" fill="#854F0B">domain-rule labels</text>

  <line x1="346" y1="100" x2="362" y2="100" stroke="#555" stroke-width="1.5" marker-end="url(#arr)"/>

  <!-- DAG 3: Training -->
  <rect x="368" y="48" width="152" height="104" rx="10" fill="#EEEDFE" stroke="#534AB7" stroke-width="1"/>
  <text x="444" y="72" text-anchor="middle" font-size="12" font-weight="600" fill="#3C3489">Training DAG</text>
  <text x="444" y="90" text-anchor="middle" font-size="10" fill="#534AB7">daily 02:00 UTC</text>
  <text x="444" y="108" text-anchor="middle" font-size="10" fill="#534AB7">IsolationForest</text>
  <text x="444" y="124" text-anchor="middle" font-size="10" fill="#534AB7">stratified 80/20 split</text>
  <text x="444" y="140" text-anchor="middle" font-size="10" fill="#534AB7">MLflow registry</text>

  <line x1="520" y1="100" x2="536" y2="100" stroke="#555" stroke-width="1.5" marker-end="url(#arr)"/>

  <!-- DAG 4: Inference -->
  <rect x="542" y="48" width="152" height="104" rx="10" fill="#E1F5EE" stroke="#0F6E56" stroke-width="1"/>
  <text x="618" y="72" text-anchor="middle" font-size="12" font-weight="600" fill="#085041">Inference DAG</text>
  <text x="618" y="90" text-anchor="middle" font-size="10" fill="#0F6E56">every 6 h</text>
  <text x="618" y="108" text-anchor="middle" font-size="10" fill="#0F6E56">batch predict</text>
  <text x="618" y="124" text-anchor="middle" font-size="10" fill="#0F6E56">Gold layer data</text>
  <text x="618" y="140" text-anchor="middle" font-size="10" fill="#0F6E56">scores → S3</text>

  <!-- ── TRAINING BRANCH (below DAG 3) ── -->
  <line x1="444" y1="152" x2="444" y2="178" stroke="#534AB7" stroke-width="1" stroke-dasharray="4 3" marker-end="url(#arr-purple)"/>

  <!-- Registration gate -->
  <rect x="320" y="180" width="248" height="72" rx="10" fill="#EEEDFE" stroke="#534AB7" stroke-width="1"/>
  <text x="444" y="202" text-anchor="middle" font-size="12" font-weight="600" fill="#3C3489">Registration gate</text>
  <text x="444" y="220" text-anchor="middle" font-size="10" fill="#534AB7">ROC-AUC ≥ 0.75</text>
  <text x="444" y="236" text-anchor="middle" font-size="10" fill="#534AB7">Precision ≥ 0.60 · Recall ≥ 0.50</text>

  <!-- Pass branch left (avoid crossing block) -->
  <path d="M380 252 L320 252 L320 290" fill="none" stroke="#0F6E56" stroke-width="1.5" marker-end="url(#arr-green)"/>

  <!-- Fail branch right (avoid crossing block) -->
  <path d="M508 252 L580 252 L580 290" fill="none" stroke="#888" stroke-width="1.5" marker-end="url(#arr)"/>

  <!-- Register → Staging -->
  <rect x="190" y="292" width="180" height="52" rx="8" fill="#E1F5EE" stroke="#0F6E56" stroke-width="1"/>
  <text x="280" y="314" text-anchor="middle" font-size="12" font-weight="600" fill="#085041">Register → Staging</text>
  <text x="280" y="330" text-anchor="middle" font-size="10" fill="#0F6E56">pass (manual promote to Prod)</text>

  <!-- Skip registration -->
  <rect x="528" y="292" width="180" height="52" rx="8" fill="#f0f0f0" stroke="#aaa" stroke-width="1"/>
  <text x="618" y="314" text-anchor="middle" font-size="12" font-weight="600" fill="#555">Skip registration</text>
  <text x="618" y="330" text-anchor="middle" font-size="10" fill="#888">fail (notify · log to MLflow)</text>

  <!-- Both → Notification -->
  <path d="M280 344 L280 370 L444 370 L444 392" fill="none" stroke="#aaa" stroke-width="1" stroke-dasharray="4 3" marker-end="url(#arr)"/>
  <path d="M618 344 L618 370 L444 370" fill="none" stroke="#aaa" stroke-width="1" stroke-dasharray="4 3"/>

  <rect x="344" y="394" width="200" height="30" rx="6" fill="#f0f0f0" stroke="#bbb" stroke-width="1"/>
  <text x="444" y="413" text-anchor="middle" font-size="10" fill="#555">Notification · trigger_rule: none_failed</text>

  <!-- ── SYNTHETIC GENERATOR (right side) ── -->
  <rect x="714" y="180" width="166" height="72" rx="10" fill="#fff8e6" stroke="#e0a800" stroke-width="1"/>
  <text x="797" y="202" text-anchor="middle" font-size="12" font-weight="600" fill="#7d5a00">Synthetic generator</text>
  <text x="797" y="220" text-anchor="middle" font-size="10" fill="#7d5a00">injects edge-case</text>
  <text x="797" y="236" text-anchor="middle" font-size="10" fill="#7d5a00">anomalies → Bronze</text>

  <!-- Synthetic → Bronze (L-bend, avoid crossing block centers) -->
  <path d="M714 216 L700 216 L700 112 L172 112" fill="none" stroke="#e0a800" stroke-width="1" stroke-dasharray="5 4" marker-end="url(#arr-amber)"/>
</svg>
